<?xml version="1.0" standalone="no"?>
<!DOCTYPE svg PUBLIC "-//W3C//DTD SVG 20010904//EN"
 "http://www.w3.org/TR/2001/REC-SVG-20010904/DTD/svg10.dtd">
<svg version="1.0" xmlns="http://www.w3.org/2000/svg"
 width="220.000000pt" height="220.000000pt" viewBox="0 0 220.000000 220.000000"
 preserveAspectRatio="xMidYMid meet">
<metadata>
Created by potrace 1.10, written by Peter Selinger 2001-2011
</metadata>
<g transform="translate(0.000000,220.000000) scale(0.100000,-0.100000)"
fill="gray" stroke="none">
<path d="M960 2105 c-68 -41 -127 -82 -130 -91 -4 -11 -99 -55 -266 -123 -143
-58 -273 -111 -289 -118 -29 -12 -29 -12 18 -10 l47 2 0 -57 c0 -55 1 -58 25
-58 24 0 25 2 22 56 l-2 55 220 0 220 0 0 -157 0 -157 -65 -28 c-36 -14 -195
-83 -354 -153 -160 -69 -296 -126 -303 -126 -7 0 -13 -5 -13 -10 0 -7 16 -9
41 -6 l41 5 -4 -56 c-3 -52 -1 -56 20 -59 21 -4 22 0 22 56 l0 60 310 0 310 0
0 -205 0 -204 -86 -218 c-47 -120 -109 -276 -137 -348 -29 -71 -54 -134 -56
-140 -2 -5 9 2 25 16 16 15 133 111 259 214 127 103 238 194 247 203 16 14 22
11 67 -24 127 -102 430 -351 465 -383 21 -20 37 -29 34 -21 -3 8 -31 78 -61
155 -30 77 -89 227 -131 334 l-77 195 -2 213 -2 213 308 0 307 0 0 -61 c0 -57
1 -60 23 -57 20 3 22 9 22 58 l1 55 43 -3 c45 -4 50 11 8 22 -13 3 -178 73
-366 155 l-342 149 0 156 0 157 218 0 218 0 -1 -56 c-1 -52 0 -55 22 -55 22 0
24 4 24 58 l0 58 43 -4 c48 -5 42 9 -13 27 -19 6 -143 56 -275 110 -165 68
-239 103 -238 112 3 15 -254 170 -278 168 -8 0 -70 -34 -139 -74z m245 -30
c53 -30 100 -55 105 -55 5 0 11 -4 14 -9 3 -5 -72 -6 -172 -4 -98 3 -201 1
-230 -5 -38 -7 -50 -6 -43 1 17 17 204 125 219 126 7 1 55 -24 107 -54z m85
-117 c0 -5 -4 -8 -9 -8 -5 0 -47 -30 -95 -66 l-87 -67 -33 24 c-111 81 -155
115 -156 119 0 3 86 5 190 5 105 0 190 -3 190 -7z m-460 -78 l0 -70 -152 0
c-84 0 -163 -3 -175 -6 -40 -11 -25 12 16 24 21 7 96 36 167 66 71 30 132 55
137 55 4 1 7 -30 7 -69z m714 1 c82 -34 155 -61 162 -61 8 0 14 -3 14 -7 0 -5
-77 -7 -171 -6 l-172 3 -1 70 c-1 44 2 69 9 66 5 -2 77 -31 159 -65z m-212 -8
l-3 -68 -85 0 c-46 0 -84 2 -83 5 1 5 161 127 169 129 3 1 4 -29 2 -66z m-364
-12 c40 -30 71 -55 70 -56 -2 -1 -40 1 -85 3 l-83 4 0 60 c0 68 -7 68 98 -11z
m37 -115 c-15 -12 -52 -40 -81 -64 l-54 -43 0 63 0 63 82 1 82 0 -29 -20z
m327 -44 c2 -34 1 -62 -1 -62 -3 0 -143 102 -163 119 -4 3 31 6 77 6 l83 0 4
-63z m-124 -22 c55 -41 101 -77 101 -80 1 -3 -47 -33 -105 -67 l-105 -62 -107
61 c-59 33 -108 62 -110 63 -4 3 213 164 219 162 3 -1 51 -36 107 -77z m122
-172 l0 -53 -90 -1 -90 -1 78 44 c42 24 81 48 86 53 15 15 16 13 16 -42z
m-395 7 c32 -19 67 -37 77 -41 26 -8 22 -28 -4 -20 -13 3 -49 6 -80 6 l-58 0
0 45 c0 25 2 45 4 45 2 0 30 -16 61 -35z m55 -102 c0 -5 -27 -23 -60 -40 l-60
-32 0 34 c0 34 0 34 53 38 28 2 55 4 60 5 4 1 7 -1 7 -5z m342 -35 c2 -21 0
-38 -4 -38 -6 0 -128 70 -128 74 0 1 29 2 64 1 l64 0 4 -37z m-129 -18 c47
-27 90 -50 96 -50 22 0 10 -17 -24 -33 -19 -9 -64 -35 -101 -57 -37 -22 -72
-40 -79 -38 -18 5 -205 113 -205 118 1 11 186 109 207 109 11 1 59 -21 106
-49z m-373 -75 l0 -114 -265 -3 c-146 -2 -265 -1 -265 2 0 5 506 226 523 229
4 0 7 -51 7 -114z m677 59 c235 -103 381 -164 393 -164 6 0 9 -3 7 -7 -3 -5
-124 -7 -269 -5 l-263 3 0 114 c0 63 1 115 2 115 1 0 59 -25 130 -56z m-512
-157 c30 -16 29 -16 -47 -17 l-78 0 0 45 0 45 48 -29 c26 -16 61 -36 77 -44z
m335 29 l0 -44 -79 -4 c-44 -2 -77 -1 -75 2 5 4 147 89 152 90 1 0 2 -20 2
-44z m-330 -97 c-8 -5 -41 -25 -72 -44 l-58 -34 0 45 0 44 73 -1 c50 0 67 -3
57 -10z m244 -78 l68 -40 -42 -21 c-23 -12 -71 -39 -106 -61 l-65 -39 -105 61
c-58 34 -103 64 -100 66 3 3 49 31 103 62 l98 58 40 -23 c22 -13 71 -41 109
-63z m88 44 c2 -25 3 -45 2 -45 -1 0 -37 20 -80 45 l-79 45 76 0 77 0 4 -45z
m1 -229 c1 -58 -1 -106 -4 -106 -4 0 -48 24 -98 54 l-91 54 72 40 c40 22 82
47 93 55 11 9 21 14 23 12 2 -2 4 -51 5 -109z m-365 51 c45 -27 82 -50 82 -52
0 -2 -29 -19 -65 -39 -36 -20 -77 -43 -90 -52 l-25 -16 0 107 c0 59 3 105 8
103 4 -1 44 -25 90 -51z m242 -139 c60 -35 109 -65 109 -68 0 -3 -49 -45 -109
-93 l-110 -88 -88 74 c-48 40 -99 81 -113 90 -28 20 -31 17 76 77 39 21 79 46
90 54 11 9 24 16 28 16 4 0 57 -28 117 -62z m-247 -192 l105 -84 -97 -78 c-53
-43 -149 -122 -214 -176 -114 -96 -117 -98 -97 -57 19 36 111 265 172 427 11
28 21 52 23 52 2 0 51 -38 108 -84z m413 19 c21 -55 158 -402 172 -434 3 -8
-27 13 -65 45 -39 32 -132 109 -206 169 -75 61 -135 113 -134 117 3 12 192
167 201 164 5 -1 19 -29 32 -61z"/>
</g>
</svg>
