<?xml version="1.0" standalone="no"?>
<!DOCTYPE svg PUBLIC "-//W3C//DTD SVG 20010904//EN"
 "http://www.w3.org/TR/2001/REC-SVG-20010904/DTD/svg10.dtd">
<svg version="1.0" xmlns="http://www.w3.org/2000/svg"
 width="220.000000pt" height="220.000000pt" viewBox="0 0 220.000000 220.000000"
 preserveAspectRatio="xMidYMid meet">
<metadata>
Created by potrace 1.10, written by Peter Selinger 2001-2011
</metadata>
<g transform="translate(0.000000,220.000000) scale(0.100000,-0.100000)"
fill="green" stroke="none">
<path d="M1504 1877 c-3 -8 -4 -34 -2 -58 2 -36 7 -44 23 -44 18 0 20 7 20 55
0 44 -3 55 -18 58 -9 2 -20 -3 -23 -11z"/>
<path d="M1314 1829 c-11 -18 37 -99 59 -99 29 0 30 25 3 69 -26 41 -48 51
-62 30z"/>
<path d="M1674 1799 c-27 -44 -26 -69 3 -69 22 0 70 81 59 99 -14 21 -36 11
-62 -30z"/>
<path d="M1441 1716 c-71 -25 -136 -99 -151 -171 l-6 -30 -373 -2 c-206 -1
-377 -5 -381 -10 -15 -17 -252 -794 -246 -808 5 -13 55 -15 366 -15 l360 0 0
-110 0 -110 -144 0 -143 0 -116 -55 c-63 -30 -118 -58 -121 -64 -3 -5 0 -15 7
-23 11 -11 112 -12 553 -8 470 4 539 7 539 20 0 9 -45 37 -115 72 l-115 57
-147 1 -148 0 0 110 0 110 359 0 c302 0 360 2 371 15 6 8 9 18 6 23 -3 5 -41
124 -85 263 -44 140 -82 261 -86 271 -4 11 0 18 12 22 35 11 101 87 117 134
31 89 15 167 -48 239 -22 25 -58 54 -81 64 -46 21 -133 24 -184 5z m164 -55
c69 -31 115 -105 115 -181 -1 -41 -34 -103 -75 -139 -22 -19 -40 -30 -41 -25
-16 70 -60 194 -68 195 -6 0 -55 0 -109 -1 -99 -1 -99 -1 -92 22 13 46 61 103
105 126 53 27 111 28 165 3z m-915 -255 l-11 -56 -76 0 c-60 0 -74 3 -70 14 3
8 11 32 18 55 l12 40 66 3 c36 2 68 2 69 1 2 -1 -1 -27 -8 -57z m206 33 c-3
-17 -6 -44 -6 -60 l0 -29 -81 0 c-72 0 -80 2 -75 18 3 9 8 34 11 54 l7 37 67
4 c36 2 70 4 75 5 5 1 6 -12 2 -29z m234 -35 l0 -54 -96 0 -97 0 7 38 c3 20 6
46 6 57 0 19 6 20 90 17 l90 -3 0 -55z m209 -44 c1 -12 -13 -14 -78 -12 l-79
3 -4 54 -3 54 70 3 70 3 12 -45 c6 -25 12 -52 12 -60z m180 64 c6 -23 13 -49
17 -58 5 -14 -4 -16 -69 -16 l-75 0 -7 38 c-3 20 -9 46 -11 57 -5 19 0 20 65
20 l70 0 10 -41z m-854 -146 c-4 -13 -8 -30 -10 -38 -17 -77 -7 -70 -99 -70
l-83 0 21 65 20 65 79 0 c77 0 78 -1 72 -22z m218 -35 c-3 -32 -5 -62 -7 -66
-2 -9 -186 -16 -186 -7 0 3 4 21 9 40 5 19 12 47 15 63 6 27 7 27 90 27 l83 0
-4 -57z m257 18 c0 -21 3 -51 6 -67 l6 -29 -114 3 -113 3 3 52 c5 80 0 77 112
77 l100 0 0 -39z m223 -6 c4 -25 9 -55 12 -67 6 -23 5 -23 -88 -20 l-94 3 -2
65 -2 64 84 0 84 0 6 -45z m216 -18 c11 -35 21 -65 21 -68 0 -2 -37 -3 -83 -1
l-83 3 -16 65 -15 64 77 0 77 0 22 -63z m-953 -140 c-3 -12 -10 -45 -16 -72
l-11 -50 -92 2 c-51 1 -91 3 -91 5 1 2 10 30 19 63 10 33 19 63 22 68 2 4 43
7 90 7 84 0 85 0 79 -23z m243 -9 c0 -18 -4 -51 -7 -73 l-7 -40 -103 0 c-98 0
-103 1 -98 20 3 11 10 44 16 73 l12 52 94 0 94 0 -1 -32z m285 -20 c12 -101
23 -93 -120 -93 l-126 0 6 35 c3 19 6 52 6 73 l0 37 114 0 113 0 7 -52z m252
-18 c7 -36 13 -67 13 -70 1 -3 -46 -5 -104 -5 l-105 0 0 35 c0 19 -3 52 -6 73
l-7 38 99 -3 98 -3 12 -65z m226 12 c9 -32 20 -64 23 -72 4 -13 -11 -15 -89
-15 l-94 0 -12 59 c-6 32 -14 64 -17 72 -4 11 12 14 83 14 l89 0 17 -58z
m-1042 -139 c0 -5 -4 -24 -9 -43 -5 -19 -15 -61 -21 -92 l-11 -58 -105 0 c-57
0 -104 3 -104 7 0 5 12 44 26 88 14 44 27 86 29 93 5 13 195 18 195 5z m266
-35 c-3 -24 -8 -69 -11 -100 l-6 -58 -120 0 c-65 0 -119 3 -119 8 0 4 4 23 9
42 5 19 15 61 21 93 l11 57 110 0 110 0 -5 -42z m314 -5 c0 -27 3 -71 6 -98
l6 -50 -145 -1 -145 0 4 55 c3 31 7 75 10 99 l5 42 130 0 129 0 0 -47z m281
-48 c10 -49 18 -93 18 -97 1 -5 -53 -8 -118 -8 l-119 0 -9 93 c-5 50 -7 95 -6
99 2 3 51 6 110 5 l107 -2 17 -90z m251 5 c15 -46 28 -90 28 -97 0 -10 -25
-13 -103 -13 l-103 0 -18 87 c-10 47 -20 93 -23 101 -5 11 11 13 92 10 l98 -3
29 -85z m-315 -452 c29 -13 53 -25 53 -28 0 -3 -184 -5 -409 -5 -225 0 -408 2
-406 4 2 2 26 14 52 26 47 23 56 23 353 24 295 1 307 0 357 -21z"/>
<path d="M1176 1685 c-6 -18 13 -38 53 -55 31 -13 61 -8 61 9 0 14 -71 61 -91
61 -9 0 -19 -7 -23 -15z"/>
<path d="M1798 1675 c-42 -29 -46 -40 -20 -54 13 -7 27 -2 57 18 22 15 40 33
40 41 0 25 -38 22 -77 -5z"/>
<path d="M1812 1504 c-27 -20 2 -44 53 -44 43 0 77 22 59 39 -15 14 -95 18
-112 5z"/>
<path d="M1766 1345 c-6 -18 13 -38 53 -55 31 -13 61 -8 61 9 0 14 -71 61 -91
61 -9 0 -19 -7 -23 -15z"/>
<path d="M1655 1240 c-9 -15 37 -94 58 -98 29 -6 30 24 3 67 -26 40 -48 51
-61 31z"/>
</g>
</svg>
