<?xml version="1.0" standalone="no"?>
<!DOCTYPE svg PUBLIC "-//W3C//DTD SVG 20010904//EN"
 "http://www.w3.org/TR/2001/REC-SVG-20010904/DTD/svg10.dtd">
<svg version="1.0" xmlns="http://www.w3.org/2000/svg"
 width="300.000000pt" height="300.000000pt" viewBox="0 0 300.000000 300.000000"
 preserveAspectRatio="xMidYMid meet">
<metadata>
Created by potrace 1.10, written by Peter Selinger 2001-2011
</metadata>
<g transform="translate(0.000000,300.000000) scale(0.100000,-0.100000)"
fill="rgb(99, 97, 97)" stroke="none">
<path d="M216 2314 l-26 -27 0 -744 c0 -723 1 -745 20 -783 11 -21 36 -51 57
-67 l36 -28 1197 0 1197 0 36 28 c21 16 46 46 57 67 19 38 20 60 20 783 l0
744 -26 27 c-19 18 -37 26 -61 26 -85 0 -100 -36 -99 -227 l1 -143 -72 0 -72
0 0 -400 0 -400 72 0 72 0 1 -165 0 -165 -1125 0 -1126 0 0 165 0 165 73 0 72
0 0 400 0 400 -72 0 -73 0 1 137 c2 150 -6 195 -39 218 -35 24 -90 19 -121
-11z m108 -36 c13 -18 16 -52 16 -159 0 -161 6 -174 85 -186 l50 -8 0 -355 0
-355 -47 -5 c-84 -10 -88 -19 -88 -200 0 -150 1 -157 23 -178 l23 -22 869 0
c1505 -1 1358 -3 1383 20 21 20 22 29 22 174 0 183 -6 196 -86 205 l-49 6 -3
356 -2 356 50 5 c85 8 90 18 90 182 0 113 3 146 16 164 22 31 74 27 90 -7 9
-17 12 -209 12 -737 l0 -714 -22 -43 c-15 -29 -35 -49 -66 -65 l-45 -22 -1160
2 -1160 3 -36 28 c-67 50 -64 17 -64 818 0 601 2 729 14 742 20 25 67 21 85
-5z"/>
<path d="M626 2094 c-14 -14 -16 -73 -16 -503 0 -365 3 -490 12 -499 17 -17
1739 -17 1756 0 9 9 12 134 12 499 0 430 -2 489 -16 503 -14 14 -107 16 -874
16 -767 0 -860 -2 -874 -16z m1716 -32 c13 -13 17 -926 5 -939 -12 -12 -1668
-15 -1687 -3 -13 8 -15 71 -15 462 0 249 1 461 3 470 5 23 -3 23 900 22 536
-1 787 -5 794 -12z"/>
<path d="M1554 1970 c-71 -28 -83 -122 -23 -172 41 -35 75 -35 124 -2 l38 25
21 -20 c31 -30 77 -36 115 -17 17 9 31 21 31 26 0 15 16 12 34 -5 39 -39 101
-40 144 -2 l22 20 26 -24 c19 -18 37 -24 71 -24 38 0 49 5 74 33 32 36 36 69
14 112 -32 61 -112 75 -162 29 l-22 -22 -32 28 c-38 31 -81 30 -126 -3 -27
-20 -27 -20 -65 5 -44 30 -87 26 -125 -8 l-22 -22 -31 27 c-32 26 -67 32 -106
16z m78 -40 c45 -35 42 -84 -7 -116 -21 -14 -30 -14 -54 -4 -57 23 -61 102 -7
128 31 15 40 14 68 -8z m192 -1 c57 -45 8 -144 -60 -122 -62 20 -70 102 -14
130 34 17 43 16 74 -8z m199 -11 c53 -62 -31 -149 -96 -98 -20 16 -27 30 -27
55 0 67 79 95 123 43z m161 21 c57 -26 53 -105 -6 -130 -68 -28 -121 74 -62
120 31 24 35 25 68 10z"/>
<path d="M784 1935 l-24 -24 0 -314 c0 -303 1 -315 21 -341 l20 -26 298 0 298
0 21 23 c22 23 22 28 22 344 0 312 0 320 -21 339 -20 18 -42 19 -316 21 l-294
3 -25 -25z m624 -340 l-3 -326 -302 -2 -302 -2 -3 328 -3 327 308 0 307 0 -2
-325z"/>
<path d="M990 1682 c-52 -70 -96 -129 -98 -132 -1 -3 52 -3 119 -2 l121 4 -46
-58 -46 -59 32 -25 c18 -14 36 -25 41 -25 5 0 50 56 102 125 l94 125 -116 5
-115 5 42 53 43 53 -34 29 c-19 16 -36 29 -39 29 -3 0 -48 -57 -100 -127z m88
19 c-19 -33 -20 -43 -10 -65 9 -21 19 -26 49 -28 21 -1 49 -3 63 -4 14 -1 31
-3 37 -3 9 -1 8 -9 -5 -28 -36 -59 -78 -111 -95 -122 -14 -9 -13 -2 9 40 25
50 25 52 7 70 -14 14 -35 19 -86 21 -41 1 -67 6 -67 13 0 15 100 145 112 145
5 0 -1 -18 -14 -39z"/>
<path d="M1583 1588 c-37 -26 -73 -94 -73 -135 1 -63 55 -140 113 -162 137
-52 274 82 228 222 -14 40 -72 97 -100 97 -24 0 -50 -31 -53 -63 -3 -35 -14
-34 -21 2 -6 31 -31 61 -50 61 -7 0 -27 -10 -44 -22z m106 -138 l48 0 -5 71
c-4 69 -4 71 16 60 54 -29 93 -110 77 -163 -34 -112 -167 -141 -244 -53 -52
59 -39 155 26 203 l28 20 3 -69 3 -69 48 0z"/>
<path d="M2008 1593 c-14 -9 -36 -34 -48 -54 -63 -114 9 -248 139 -257 49 -3
62 0 102 26 104 67 108 210 7 285 -23 17 -32 19 -52 9 -15 -7 -28 -23 -32 -39
-11 -51 -18 -60 -22 -28 -4 31 -37 75 -56 75 -6 0 -23 -8 -38 -17z m104 -143
l50 0 -4 70 c-2 39 0 70 4 70 19 0 78 -73 83 -104 25 -131 -118 -225 -219
-145 -75 59 -74 172 1 227 l28 20 3 -69 3 -69 51 0z"/>
</g>
</svg>
